<svg preserveAspectRatio="none" width="100%" height="100%" overflow="visible" style="display: block;" viewBox="0 0 64 64" fill="none" xmlns="http://www.w3.org/2000/svg">
<g id="lucide/syringe">
<rect width="64" height="64" rx="32" fill="var(--fill-0, #E8F5E9)"/>
<path id="Vector" d="M37.3333 49V34.6846C37.3333 34.21 37.146 33.7548 36.8126 33.4193C36.4792 33.0837 36.0271 32.8951 35.5556 32.8951H28.4444C27.9729 32.8951 27.5208 33.0837 27.1874 33.4193C26.854 33.7548 26.6667 34.21 26.6667 34.6846V49M16 29.3163C15.9999 28.7957 16.1126 28.2813 16.3303 27.8091C16.548 27.3368 16.8654 26.9181 17.2604 26.582L29.7049 15.8455C30.3466 15.2995 31.1597 15 32 15C32.8403 15 33.6534 15.2995 34.2951 15.8455L46.7396 26.582C47.1346 26.9181 47.452 27.3368 47.6697 27.8091C47.8874 28.2813 48.0001 28.7957 48 29.3163V45.4211C48 46.3703 47.6254 47.2806 46.9586 47.9518C46.2918 48.6229 45.3874 49 44.4444 49H19.5556C18.6126 49 17.7082 48.6229 17.0414 47.9518C16.3746 47.2806 16 46.3703 16 45.4211V29.3163Z" stroke="var(--stroke-0, #1B5E20)" stroke-width="3.58333" stroke-linecap="round" stroke-linejoin="round"/>
</g>
</svg>
