<svg preserveAspectRatio="none" width="100%" height="100%" overflow="visible" style="display: block;" viewBox="0 0 35.3333 35.3333" fill="none" xmlns="http://www.w3.org/2000/svg">
<path id="Vector" d="M27.5417 31.0933C27.1676 28.743 25.9676 26.6032 24.1573 25.0583C22.3469 23.5135 20.045 22.6649 17.6651 22.6651C15.2852 22.6653 12.9835 23.5143 11.1734 25.0594C9.36333 26.6046 8.16367 28.7446 7.79 31.095M24.3333 16C24.3333 19.6819 21.3486 22.6667 17.6667 22.6667C13.9848 22.6667 11 19.6819 11 16C11 12.3181 13.9848 9.33333 17.6667 9.33333C21.3486 9.33333 24.3333 12.3181 24.3333 16ZM34.3333 17.6667C34.3333 26.8714 26.8714 34.3333 17.6667 34.3333C8.46192 34.3333 1 26.8714 1 17.6667C1 8.46192 8.46192 1 17.6667 1C26.8714 1 34.3333 8.46192 34.3333 17.6667Z" stroke="var(--stroke-0, #616161)" stroke-width="2" stroke-linecap="round" stroke-linejoin="round"/>
</svg>
