<svg preserveAspectRatio="none" width="100%" height="100%" overflow="visible" style="display: block;" viewBox="0 0 170 76.0177" fill="none" xmlns="http://www.w3.org/2000/svg">
<g id="Vector">
<path d="M15.8327 19.5764C15.8327 19.5764 23.6321 25.0359 23.4501 29.8455C23.4501 29.8455 16.3527 29.5856 16.0407 36.865C16.0407 36.865 15.5727 42.9485 21.5522 43.2344C21.5522 43.2344 25.5299 43.2344 26.3878 39.3348C26.2058 40.1667 27.9737 42.7665 28.4937 42.6625C28.4937 42.6625 28.2077 42.1945 27.8697 41.0506C27.1158 38.4768 27.5577 39.8807 26.9858 37.4109C26.9858 37.4109 26.6998 36.579 26.0239 36.761C26.0239 36.761 25.4259 36.605 25.1659 38.0349C25.1659 38.0349 24.698 41.4926 21.7082 41.5966C21.7082 41.5966 18.1465 41.7786 18.1985 36.189C18.1985 36.189 18.1985 31.8994 21.9942 31.4314C21.9942 31.4314 23.918 31.1974 24.828 32.2893C24.828 32.2893 25.5819 32.8093 25.7899 32.0034C25.7899 32.0034 25.9719 30.4955 24.646 27.7397C24.646 27.7397 20.8243 20.6943 15.8587 19.6024" fill="#97C235"/>
<path d="M0.0259978 57.0913C0.0259978 67.4644 8.5013 76.0177 18.9524 76.0177C29.4036 76.0177 37.8789 67.5424 37.8789 57.0913C37.8789 55.3754 37.3849 51.8657 36.111 49.084C33.7192 43.7284 30.9375 41.4926 30.9375 35.4611C30.9375 14.3768 65.6966 0 74.8478 0C69.6483 0 58.2352 1.32589 48.148 7.69537C39.1788 13.3629 28.4677 22.8001 28.4677 35.4091C28.4677 40.2707 30.0535 43.0785 31.7694 46.0682C32.4713 47.2901 33.1733 48.538 33.8492 50.0459C34.9151 52.4117 35.4091 55.5574 35.4091 57.0393C35.4091 66.1126 28.0257 73.496 18.9524 73.496C9.87919 73.496 2.49579 66.1126 2.49579 57.0393C2.49579 57.0393 1.66386 47.0301 14.0388 40.5307C14.0388 40.5307 0 44.4043 0 57.0393" fill="#97C235"/>
<path d="M41.8306 36.657C38.3988 37.1509 37.021 38.0609 37.021 39.5687C37.021 40.6347 37.5669 41.3626 39.1008 41.3626C39.7507 41.3626 41.8046 40.9466 41.8046 39.6467V36.631L41.8306 36.657ZM41.9865 41.5446C41.3366 42.2985 39.9587 42.7925 38.7628 42.7925C36.137 42.7925 35.0191 41.6226 35.0191 39.7767C35.0191 37.3849 36.735 36.059 41.8306 35.3831V35.0711C41.8306 33.5632 41.3626 32.7053 39.7507 32.7053C38.7368 32.7053 38.0869 33.1993 37.7749 33.7712C37.5149 34.2912 37.2029 34.5772 36.683 34.5772C35.929 34.5772 35.5391 33.8232 35.903 33.1473C36.267 32.4193 37.3329 31.3534 39.7767 31.3534C42.4285 31.3534 43.8064 32.2893 43.8064 35.4611V39.7767C43.8064 41.0506 44.1964 41.3106 44.1964 41.8566C44.1964 42.4805 43.8324 42.6885 43.2604 42.6885C42.6105 42.6885 42.1945 42.2725 42.0125 41.5446H41.9865Z" fill="var(--fill-0, #5F8733)"/>
<path d="M46.7441 37.1509C46.7441 39.6727 47.9401 41.2066 49.7599 41.2066C51.5798 41.2066 52.5157 39.9067 52.5157 39.5947V34.5252C52.5157 34.1612 51.5538 32.9393 49.8379 32.9393C47.4981 32.9393 46.7182 34.7331 46.7182 37.1249L46.7441 37.1509ZM52.4897 41.6746C51.9177 42.1945 50.9818 42.8185 49.4739 42.8185C46.5622 42.8185 44.7163 40.8166 44.7163 37.1249C44.7163 33.6152 46.2762 31.4054 49.5519 31.4054C50.7738 31.4054 51.9957 31.8734 52.5417 32.6793H52.5937C52.5157 32.0294 52.8536 31.5614 53.5296 31.5614C54.2055 31.5614 54.5175 32.0294 54.5175 32.7313V41.2586C54.5175 43.7804 53.9976 45.0283 53.3736 45.7042C52.6197 46.6142 51.3458 47.0821 49.7859 47.0821C48.226 47.0821 46.5622 46.5882 45.6782 45.3663C45.2103 44.6643 45.5482 43.8324 46.3542 43.8324C46.6922 43.8324 46.9781 43.9624 47.2641 44.3783C47.8361 45.2103 48.642 45.6522 49.7599 45.6522C50.4618 45.6522 51.2938 45.3923 51.8137 44.7423C52.3337 44.0924 52.5157 42.9745 52.5417 41.6746H52.4897Z" fill="var(--fill-0, #5F8733)"/>
<path d="M55.0635 32.9653C54.7775 32.1074 55.1415 31.5354 55.9214 31.5354C56.5713 31.5354 56.8573 31.8994 57.0653 32.5753L59.5611 40.9986H59.6131L62.1609 32.4713C62.3429 31.7954 62.6808 31.5094 63.2528 31.5094C64.0067 31.5094 64.3967 32.0814 64.1107 32.9393L61.147 41.4666C60.887 42.1685 60.497 42.6365 59.5871 42.6365C58.7552 42.6365 58.3132 42.2205 58.0532 41.4406L55.1155 32.9133L55.0635 32.9653Z" fill="var(--fill-0, #5F8733)"/>
<path d="M73.9639 41.4926C75.0818 41.4926 76.3297 41.1286 76.3297 39.5947C76.3297 39.2048 76.1737 38.7628 75.8358 38.4508C75.4198 38.0089 74.7438 37.8269 73.418 37.4109C72.0661 36.995 71.3641 36.657 70.8442 36.085C70.3762 35.5651 70.1682 34.9671 70.1682 34.2652C70.1682 33.3033 70.6102 32.5493 71.3381 32.0814C72.0401 31.6394 72.924 31.3794 74.1979 31.3794C75.8878 31.3794 77.0057 32.0034 77.4736 32.5753C77.9156 33.1213 77.6036 33.9012 76.9017 33.9012C76.6157 33.9012 76.3297 33.7452 76.0437 33.4332C75.7318 33.0173 75.0818 32.6793 74.1719 32.6793C73.5999 32.6793 73.002 32.7573 72.586 33.0433C72.274 33.2773 72.0921 33.6412 72.0921 34.1092C72.0921 34.4732 72.2741 34.8371 72.612 35.0971C73.028 35.4611 73.444 35.6171 74.8998 36.059C76.3297 36.501 77.0837 36.865 77.6036 37.4369C78.0196 37.9049 78.3056 38.5288 78.3056 39.3608C78.3056 40.4007 77.9416 41.1806 77.2396 41.8306C76.4077 42.5325 75.2638 42.7925 74.0159 42.7925C71.7801 42.7925 70.8182 42.0905 70.3242 41.4926C69.7783 40.8686 70.1942 40.1407 70.8442 40.1407C71.1561 40.1407 71.3381 40.1927 71.6241 40.5047C72.0921 41.0506 73.106 41.4666 73.9379 41.4666" fill="var(--fill-0, #5F8733)"/>
<path d="M85.221 36.657C81.7893 37.1509 80.4374 38.0609 80.4374 39.5687C80.4374 40.6347 80.9833 41.3626 82.5172 41.3626C83.1672 41.3626 85.221 40.9466 85.221 39.6467V36.631V36.657ZM85.377 41.5446C84.727 42.2985 83.3491 42.7925 82.1532 42.7925C79.5275 42.7925 78.4095 41.6226 78.4095 39.7767C78.4095 37.3849 80.1254 36.059 85.221 35.3831V35.0711C85.221 33.5632 84.753 32.7053 83.1411 32.7053C82.1272 32.7053 81.4773 33.1993 81.1653 33.7712C80.9053 34.2912 80.5934 34.5772 80.0734 34.5772C79.3195 34.5772 78.9555 33.8232 79.2935 33.1473C79.6574 32.4193 80.7234 31.3534 83.1672 31.3534C85.8189 31.3534 87.1968 32.2893 87.1968 35.4611V39.7767C87.1968 41.0506 87.5868 41.3106 87.5868 41.8566C87.5868 42.4805 87.2228 42.6885 86.6769 42.6885C86.0269 42.6885 85.6109 42.2725 85.429 41.5446H85.377Z" fill="var(--fill-0, #5F8733)"/>
<path d="M88.7307 29.0136C88.7307 28.2857 89.0427 27.8437 89.6926 27.8437C90.3426 27.8437 90.6805 28.3117 90.6805 29.0136V41.5186C90.6805 42.2205 90.3686 42.6885 89.6926 42.6885C89.0167 42.6885 88.7307 42.2205 88.7307 41.4926V29.0136Z" fill="var(--fill-0, #5F8733)"/>
<path d="M97.596 42.2205C96.868 42.5845 96.0621 42.7925 95.2042 42.7925C94.1382 42.7925 93.2543 42.5065 92.7084 41.8826C92.2144 41.3106 91.9544 40.4527 91.9544 39.1268V32.6793C91.9544 31.9254 92.2664 31.5094 92.9164 31.5094C93.5663 31.5094 93.9043 31.9774 93.9043 32.6793V38.3728C93.9043 39.2308 93.9563 40.0107 94.3462 40.5047C94.6062 40.8426 95.1002 41.1026 95.8281 41.1026C96.3741 41.1026 96.998 40.9466 97.596 40.6347C98.1159 40.3747 99.2858 39.5687 99.2858 39.1268V32.6793C99.2858 31.9254 99.5978 31.5094 100.248 31.5094C100.898 31.5094 101.236 31.9774 101.236 32.6793V41.4926C101.236 42.1945 100.924 42.6625 100.248 42.6625C99.5718 42.6625 99.2858 42.1945 99.2858 41.4666V40.9466C98.8439 41.4146 98.0899 41.9346 97.596 42.2205Z" fill="var(--fill-0, #5F8733)"/>
<path d="M106.773 41.2326C108.593 41.2326 109.529 39.6727 109.529 39.3348V34.7071C109.529 34.2912 108.255 32.9393 106.747 32.9393C104.979 32.9393 103.965 34.4732 103.965 37.1249C103.965 39.7767 105.005 41.2326 106.747 41.2326H106.773ZM106.409 42.8185C103.393 42.8185 101.964 40.5307 101.964 37.0989C101.964 33.2773 103.887 31.4054 106.357 31.4054C107.631 31.4054 108.827 31.9774 109.555 32.7313V29.0136C109.555 28.2857 109.867 27.8437 110.517 27.8437C111.167 27.8437 111.505 28.3117 111.505 29.0136V41.5186C111.505 42.2205 111.193 42.6885 110.517 42.6885C109.841 42.6885 109.477 42.1425 109.581 41.4146H109.529C108.957 42.0125 108.021 42.8445 106.409 42.8445" fill="var(--fill-0, #5F8733)"/>
<path d="M121.592 37.5669C120.604 38.0609 120.162 38.7368 120.162 39.5947C120.162 40.6607 120.708 41.3886 122.242 41.3886C122.892 41.3886 124.946 40.9726 124.946 39.6727V36.657C123.438 36.865 122.346 37.1769 121.566 37.5669M125.102 41.5446C124.452 42.2985 123.074 42.7925 121.852 42.7925C119.226 42.7925 118.108 41.6226 118.108 39.7767C118.108 37.3849 119.824 36.059 124.946 35.3831V35.0711C124.946 33.5632 124.452 32.7053 122.866 32.7053C121.852 32.7053 121.202 33.1993 120.89 33.7712C120.63 34.2912 120.318 34.5772 119.798 34.5772C119.044 34.5772 118.654 33.8232 119.018 33.1473C119.382 32.4193 120.448 31.3534 122.892 31.3534C125.544 31.3534 126.922 32.2893 126.922 35.4611V39.7767C126.922 41.0506 127.286 41.3106 127.286 41.8566C127.286 42.4805 126.922 42.6885 126.376 42.6885C125.726 42.6885 125.31 42.2725 125.128 41.5446H125.102Z" fill="var(--fill-0, #5F8733)"/>
<path d="M130.353 41.4926C130.353 42.1945 130.041 42.6625 129.365 42.6625C128.689 42.6625 128.403 42.1945 128.403 41.4666V32.7053C128.403 31.9514 128.715 31.5354 129.365 31.5354C130.015 31.5354 130.353 32.0034 130.353 32.7053V33.2253C131.003 32.6013 131.731 32.1593 132.355 31.8734C132.979 31.5874 133.681 31.4054 134.383 31.4054C135.449 31.4054 136.281 31.6914 136.801 32.2893C137.321 32.8613 137.555 33.7192 137.555 35.0191V41.4926C137.555 42.1945 137.243 42.6625 136.567 42.6625C135.891 42.6625 135.605 42.1945 135.605 41.4666V35.7991C135.605 34.9411 135.553 34.1612 135.163 33.6932C134.903 33.3293 134.461 33.0953 133.707 33.0953C133.187 33.0953 132.641 33.2513 132.121 33.5112C131.627 33.7712 130.327 34.5772 130.327 35.1751V41.5186L130.353 41.4926Z" fill="var(--fill-0, #5F8733)"/>
<path d="M138.829 32.7053C138.829 31.9514 139.141 31.5354 139.79 31.5354C140.44 31.5354 140.778 32.0034 140.778 32.7053V41.5186C140.778 42.2205 140.466 42.6885 139.79 42.6885C139.115 42.6885 138.829 42.2205 138.829 41.4926V32.7053ZM141.038 28.9876C141.038 29.6636 140.466 30.2355 139.79 30.2355C139.115 30.2355 138.543 29.6636 138.543 28.9876C138.543 28.3117 139.115 27.7137 139.79 27.7137C140.466 27.7137 141.038 28.2857 141.038 28.9876Z" fill="var(--fill-0, #5F8733)"/>
<path d="M156.117 42.6625C155.441 42.6625 155.155 42.1945 155.155 41.4666V35.6171C155.155 34.8631 155.103 34.0312 154.765 33.5892C154.505 33.2513 154.115 33.0693 153.569 33.0693C153.153 33.0693 152.685 33.2253 152.191 33.5372C151.698 33.8232 150.658 34.6292 150.658 35.0451V41.4926C150.658 42.1945 150.346 42.6625 149.67 42.6625C148.994 42.6625 148.708 42.1945 148.708 41.4666V35.5391C148.708 34.6551 148.63 34.0052 148.24 33.5632C147.98 33.2513 147.59 33.0953 147.148 33.0953C146.706 33.0953 146.264 33.2253 145.692 33.5632C145.224 33.8752 144.158 34.6551 144.158 35.0971V41.5186C144.158 42.2205 143.846 42.6885 143.17 42.6885C142.494 42.6885 142.208 42.2205 142.208 41.4926V32.7313C142.208 31.9774 142.52 31.5614 143.17 31.5614C143.82 31.5614 144.158 32.0294 144.158 32.7313V33.1473C144.73 32.6013 145.38 32.1593 145.978 31.8734C146.55 31.6134 147.2 31.4574 147.824 31.4574C148.63 31.4574 149.254 31.6394 149.644 32.0034C150.008 32.3153 150.294 32.7833 150.398 33.2253H150.45C151.1 32.6533 151.672 32.1853 152.269 31.9254C152.893 31.6394 153.517 31.4574 154.219 31.4574C155.155 31.4574 155.883 31.7174 156.351 32.2893C156.819 32.8613 157.105 33.7452 157.105 34.9931V41.5706C157.105 42.2725 156.793 42.7405 156.117 42.7405" fill="var(--fill-0, #5F8733)"/>
<path d="M164.566 36.657C161.135 37.1509 159.757 38.0609 159.757 39.5687C159.757 40.6347 160.329 41.3626 161.837 41.3626C162.487 41.3626 164.54 40.9466 164.54 39.6467V36.631L164.566 36.657ZM164.722 41.5446C164.072 42.2985 162.695 42.7925 161.499 42.7925C158.873 42.7925 157.755 41.6226 157.755 39.7767C157.755 37.3849 159.471 36.059 164.592 35.3831V35.0711C164.592 33.5632 164.124 32.7053 162.513 32.7053C161.499 32.7053 160.849 33.1993 160.537 33.7712C160.277 34.2912 159.965 34.5772 159.445 34.5772C158.691 34.5772 158.301 33.8232 158.665 33.1473C159.029 32.4193 160.069 31.3534 162.539 31.3534C165.19 31.3534 166.568 32.2893 166.568 35.4611V39.7767C166.568 41.0506 166.958 41.3106 166.958 41.8566C166.958 42.4805 166.594 42.6885 166.048 42.6885C165.398 42.6885 164.982 42.2725 164.8 41.5446H164.722Z" fill="var(--fill-0, #5F8733)"/>
<path d="M168.05 29.0136C168.05 28.2857 168.362 27.8437 169.012 27.8437C169.662 27.8437 170 28.3117 170 29.0136V41.5186C170 42.2205 169.688 42.6885 169.012 42.6885C168.336 42.6885 168.05 42.2205 168.05 41.4926V29.0136Z" fill="var(--fill-0, #5F8733)"/>
</g>
</svg>
